<svg xmlns="http://www.w3.org/2000/svg" viewBox="0 0 111 117" class="w-12 h-12 text-black">
    <path
        d="m68.888 0 .23.014c1.008.121 1.803 1.03 1.876 2.162l.006.171v112.306l-.012.255c-.11 1.12-.927 2.004-1.946 2.086l-.154.006H48.11l-.23-.014c-1.006-.121-1.801-1.03-1.874-2.162l-.006-.171V71H1.979l-.216-.013C.82 70.87.078 70.006.006 68.929L0 68.758V48.242l.012-.244c.101-1.068.863-1.91 1.815-1.992L1.979 46H46V2.347l.012-.255c.11-1.12.927-2.004 1.944-2.086L48.11 0h20.778Zm45.96 46 .234.013c1.077.122 1.918 1.072 1.918 2.23v20.515l-.013.244c-.117 1.123-1.032 1.998-2.139 1.998l-14.266-.06-.566-.008C88.909 70.618 80 61.092 80 49.388l.013-.306c.148-1.716 1.523-3.06 3.2-3.06L114.848 46Z"
        fill="currentColor" fillRule="evenodd"></path>
</svg>